<svg width="220" height="100" viewBox="0 0 220 100" fill="none" xmlns="http://www.w3.org/2000/svg">
    <path d="M44.8 47.5C44.8 61.5 33.4 72.9 19.4 72.9C11.2 72.9 3 69.5 0 59.9L14.2 53.3C15.5 57.7 18.2 59.3 21.8 59.3C27.4 59.3 31.9 54.8 31.9 49.2C31.9 46.3 30.7 43.5 28.7 41.5L19.4 32.3L28.7 23C30.7 21 31.9 18.2 31.9 15.3C31.9 9.7 27.4 5.2 21.8 5.2C18.2 5.2 15.5 6.8 14.2 11.2L0 4.6C3 -5 11.2 -8.4 19.4 -8.4C33.4 -8.4 44.8 3 44.8 17C44.8 25.7 40.3 32.3 32.9 35.7C40.3 39.1 44.8 45.7 44.8 47.5Z" fill="#006699"/>
    <path d="M60.8 26.4C63.8 25.1 67.4 24.5 70.8 24.5C83.6 24.5 94 34.9 94 47.7C94 60.5 83.6 70.9 70.8 70.9C58 70.9 47.6 60.5 47.6 47.7C47.6 41.3 50.1 35.5 54.3 31.3L40.5 17.5L49.8 8.2L60.8 19.2V26.4Z" fill="#009966"/>
  </svg>